<svg xmlns="http://www.w3.org/2000/svg" version="1.1" viewBox="-5.0 -10.0 110.0 135.0">
 <path d="m92.188 50h-3.1875c-0.65625-7.9062-6.1562-14.594-14.094-16.938-5.2812-1.5469-11.031-2.5938-17.094-3.0625v-0.3125c0-2.5781-2.1094-4.6875-4.6875-4.6875h-1.5625v-8.0156c2.7031-0.6875 4.6875-3.1406 4.6875-6.0469 0-3.4531-2.7969-6.25-6.25-6.25s-6.25 2.7969-6.25 6.25c0 2.9062 1.9844 5.3594 4.6875 6.0469v8.0156h-1.5625c-2.5781 0-4.6875 2.1094-4.6875 4.6875v0.3125c-6.0625 0.46875-11.812 1.5156-17.094 3.0625-7.9375 2.3438-13.438 9.0312-14.094 16.938h-3.1875c-2.5781 0-4.6875 2.1094-4.6875 4.6875v15.625c0 2.5781 2.1094 4.6875 4.6875 4.6875h3.1875c0.65625 7.9062 6.1562 14.594 14.094 16.938 7.4844 2.2031 16.094 3.375 24.906 3.375s17.422-1.1719 24.906-3.375c7.9375-2.3438 13.438-9.0312 14.094-16.938h3.1875c2.5781 0 4.6875-2.1094 4.6875-4.6875v-15.625c0-2.5781-2.1094-4.6875-4.6875-4.6875zm-45.312-39.062c0-1.7188 1.4062-3.125 3.125-3.125s3.125 1.4062 3.125 3.125-1.4062 3.125-3.125 3.125-3.125-1.4062-3.125-3.125zm-1.5625 20.516v-1.7656c0-0.85938 0.70312-1.5625 1.5625-1.5625h6.25c0.85938 0 1.5625 0.70312 1.5625 1.5625v10.938s0 0.15625-0.015625 0.23438c-0.125 0.75-0.76562 1.3281-1.5469 1.3281h-6.25c-0.78125 0-1.4219-0.57812-1.5469-1.3281-0.015625-0.078125-0.015625-0.15625-0.015625-0.23438zm14.062 34.172c0.85938 0 1.5625 0.70312 1.5625 1.5625 0 6.0312-4.9062 10.938-10.938 10.938s-10.938-4.9062-10.938-10.938c0-0.85938 0.70312-1.5625 1.5625-1.5625zm0-9.375c0-2.5938 2.0938-4.6875 4.6875-4.6875s4.6875 2.0938 4.6875 4.6875-2.0938 4.6875-4.6875 4.6875-4.6875-2.0938-4.6875-4.6875zm-23.438 4.6875c-2.5938 0-4.6875-2.0938-4.6875-4.6875s2.0938-4.6875 4.6875-4.6875 4.6875 2.0938 4.6875 4.6875-2.0938 4.6875-4.6875 4.6875zm50 12.5c0 7.1875-4.7812 13.406-11.906 15.5-7.2188 2.125-15.516 3.25-24.031 3.25s-16.812-1.125-24.031-3.25c-7.125-2.0938-11.906-8.3125-11.906-15.5v-21.875c0-7.1875 4.7812-13.406 11.906-15.5 5-1.4688 10.453-2.4531 16.219-2.9219v6.2656c-4.2188 0.375-8.2344 1.0469-11.953 2.0156-6.875 1.7969-11.484 7.1875-11.484 13.438v15.281c0 6.25 4.6094 11.641 11.484 13.438 5.9688 1.5469 12.797 2.3594 19.766 2.3594s13.797-0.8125 19.766-2.3594c6.875-1.7969 11.484-7.1875 11.484-13.438v-15.281c0-6.25-4.6094-11.641-11.484-13.438-3.7188-0.96875-7.7344-1.6406-11.953-2.0156v-6.2656c5.7656 0.46875 11.219 1.4531 16.219 2.9219 7.125 2.0938 11.906 8.3125 11.906 15.5z"/>
<text x="0.0" y="117.5" font-size="5.0" font-weight="bold" font-family="Arbeit Regular, Helvetica, Arial-Unicode, Arial, Sans-serif" fill="#000000">Created by Satria Arnata</text><text x="0.0" y="122.5" font-size="5.0" font-weight="bold" font-family="Arbeit Regular, Helvetica, Arial-Unicode, Arial, Sans-serif" fill="#000000">from Noun Project</text></svg>