<svg xmlns="http://www.w3.org/2000/svg" version="1.1" viewBox="-5.0 -10.0 110.0 135.0">
 <path d="m95.789 31.438-5.5547-2.793c-0.49609 0.92969-1.1016 1.8008-1.7969 2.5938l5.9492 2.9922h-0.003907c1.5234 0.74609 2.4883 2.293 2.4922 3.9883v23.582c0.03125 0.75781-0.25 1.4961-0.77734 2.043-0.52734 0.55078-1.2539 0.85938-2.0117 0.85938-0.76172 0-1.4883-0.30859-2.0156-0.85938-0.52344-0.54688-0.80469-1.2852-0.77734-2.043v-12.312c0-0.86328-0.69922-1.5625-1.5625-1.5625-0.85938 0-1.5625 0.69922-1.5625 1.5625v10.676h-20.086v-10.676c0-0.86328-0.70312-1.5625-1.5625-1.5625-0.86328 0-1.5625 0.69922-1.5625 1.5625v12.312c0.027344 0.75781-0.25391 1.4961-0.77734 2.043-0.52734 0.55078-1.2539 0.85938-2.0156 0.85938-0.75781 0-1.4844-0.30859-2.0117-0.85938-0.52734-0.54688-0.80859-1.2852-0.77734-2.043v-23.582c0.003906-1.6953 0.96875-3.2422 2.4883-3.9883l5.8281-2.9336h0.003906c-0.70312-0.78906-1.3086-1.6602-1.8008-2.5898l-0.14453 0.074219-18.168-0.77734c-0.50781 1.0977-1.1602 2.1211-1.9414 3.043l14.438 0.61719c-2.3633 1.3359-3.8242 3.8398-3.8281 6.5547v0.35156h-9.3164c-0.86328 0-1.5625 0.69922-1.5625 1.5625v20.566h-20.547v-19.594c0-0.57812-0.32031-1.1133-0.83594-1.3828-0.51172-0.26953-1.1328-0.23438-1.6094 0.09375l-9.8086 6.7305c-0.36719 0.25-0.60937 0.64453-0.66406 1.082-0.058594 0.44141 0.070312 0.88281 0.35938 1.2188l7.7773 9.1055c0.03125 0.039063 0.066406 0.074219 0.10156 0.10547l-0.003906 0.003906c0.35547 0.33984 0.57812 0.79297 0.64062 1.2773 0.10938 0.85547-0.30078 1.6914-1.043 2.1289-0.74219 0.4375-1.6719 0.39453-2.3711-0.10938l-13.125-11.543c-0.76563-0.65234-1.1758-1.625-1.1094-2.6289 0.070313-1.0156 0.61719-1.9375 1.4727-2.4883l19.316-12.742c0.14453-0.09375 0.30078-0.17188 0.46484-0.23438l0.54297-0.19922c-0.73438-0.78906-1.3711-1.668-1.8945-2.6133-0.28906 0.12109-0.56641 0.26953-0.83203 0.4375l-19.316 12.742c-1.668 1.082-2.7305 2.8828-2.8711 4.8633-0.13672 1.9844 0.66406 3.9141 2.168 5.2148l13.168 11.578c0.027344 0.023437 0.054688 0.046875 0.085938 0.070312 1.6875 1.3086 4 1.457 5.8398 0.37109 0.19922-0.11328 0.39453-0.24219 0.57812-0.38281 0.29688 2.7617 1.1484 10.594 3.6055 33.043 0.20312 1.7812 1.7188 3.1211 3.5117 3.1133h12.25c1.793 0.007812 3.3086-1.3359 3.5117-3.1172 3.7578-34.359 3.7578-34.469 3.7578-34.582l0.003906-20.566h7.7539v20.105c-0.027344 3.293 2.6172 5.9922 5.9141 6.0273 1.1875 0 2.3438-0.36328 3.3164-1.0391l3.1641 30.051h-0.003906c0.18359 1.7891 1.6797 3.1523 3.4766 3.1602h12.016c1.7969-0.011719 3.2969-1.375 3.4766-3.1641l3.1641-30.047h-0.003907c0.97266 0.67578 2.1289 1.0391 3.3164 1.0391 3.2969-0.035156 5.9414-2.7344 5.9141-6.0273v-23.582c0-2.875-1.6328-5.5039-4.2109-6.7812zm-74.09 23.645-5.9297-6.9414 5.9297-4.0664zm19.93 41.414c-0.027344 0.20312-0.20312 0.34766-0.40625 0.33984h-4.5039v-21.871c0-0.85938-0.69922-1.5625-1.5625-1.5625s-1.5625 0.70312-1.5625 1.5625v21.871h-4.6211c-0.20312 0.007812-0.375-0.13672-0.40625-0.33203-1.0781-9.8398-2.9766-27.215-3.5664-32.68h20.195c-0.58984 5.4609-2.4883 22.836-3.5664 32.672zm42.871 0.003906v0.003906c-0.007812 0.19922-0.16797 0.35938-0.36719 0.37109h-4.4453v-26.594c0-0.86328-0.69922-1.5625-1.5625-1.5625s-1.5625 0.69922-1.5625 1.5625v26.594h-4.4453c-0.19531-0.011719-0.35547-0.16797-0.36719-0.36719l-3.4961-33.219h19.742z"/>
 <path d="m88.531 24.148c1.3945-0.45313 2.4453-1.6016 2.7734-3.0312 0.32422-1.4258-0.12891-2.918-1.1875-3.9297 0.007812-0.21094 0.015624-0.42188 0.023437-0.62891h-0.003906c0.13281-1.4922 0.019531-2.9961-0.33984-4.4531-0.85938-4.9961-2.3125-8.0664-4.5703-9.6523-2.4727-1.7422-5.2305-1.2461-7.6641-0.8125-0.91797 0.19531-1.8477 0.3125-2.7852 0.34766-2.2188 0.054688-4.4062-0.52734-6.3047-1.6797-0.39844-0.29688-0.91406-0.38672-1.3867-0.24219-0.47266 0.14453-0.85156 0.50391-1.0156 0.97266-2.293 6.4492-0.92187 9.832 0.5 11.492-0.35547 1.5234-0.5 3.0859-0.42578 4.6484-1.0508 0.99219-1.5078 2.4531-1.2148 3.8633 0.29687 1.4141 1.3047 2.5703 2.6602 3.0586 0.86328 5.0117 5.2031 8.6758 10.289 8.6836h0.125c5.1367 0.046875 9.5703-3.5898 10.527-8.6367zm-20.066-20.316c1.9922 0.85938 4.1406 1.293 6.3125 1.2812 1.1211-0.035156 2.2383-0.16797 3.3359-0.39844 2.0977-0.375 3.9102-0.69922 5.3203 0.29297 1.2695 0.89063 2.2578 2.8828 2.9492 5.9258h-16.984c-0.61328-0.4375-2.2617-2.1367-0.93359-7.1016zm9.5391 25.828h-0.10156v0.003906c-3.8984 0.011719-7.1172-3.0391-7.3125-6.9297-0.039063-0.84375-0.73438-1.5078-1.582-1.5078-0.57031 0-1.0352-0.46094-1.0391-1.0352 0-0.36719 0.19531-0.70703 0.51562-0.88672 0.48828-0.27734 0.78906-0.79688 0.78906-1.3555l-0.003907-0.68359c-0.039062-1.0703 0.019531-2.1445 0.16406-3.207h17.555c0.066407 0.79297 0.074219 1.5859 0.027344 2.3789-0.019531 0.49219-0.039063 0.99609-0.039063 1.5117 0 0.55859 0.30078 1.0781 0.78906 1.3555 0.32031 0.17969 0.51562 0.51953 0.51562 0.88672-0.003906 0.55859-0.44141 1.0117-0.99609 1.0352-0.058594-0.003906-0.125-0.007812-0.16797-0.007812h0.003906c-0.83203 0-1.5195 0.64844-1.5625 1.4805-0.26562 3.9609-3.5859 7.0234-7.5547 6.9648z"/>
 <path d="m45.562 24.148c1.3945-0.45313 2.4453-1.6016 2.7734-3.0312 0.32422-1.4258-0.12891-2.918-1.1875-3.9297 0.007812-0.21094 0.015624-0.42188 0.023437-0.62891h-0.003906c0.13281-1.4922 0.019531-2.9961-0.33984-4.4531-0.85938-4.9922-2.3125-8.0625-4.5664-9.6523-2.4766-1.7422-5.2344-1.2461-7.668-0.8125-0.91797 0.19531-1.8477 0.3125-2.7852 0.34766-2.2188 0.054688-4.4062-0.52734-6.3047-1.6797-0.39844-0.29688-0.91406-0.38672-1.3867-0.24219-0.47266 0.14453-0.85156 0.50391-1.0156 0.97266-2.293 6.4492-0.92187 9.832 0.5 11.492-0.35547 1.5234-0.5 3.0859-0.42578 4.6484-1.0508 0.99219-1.5078 2.4531-1.2148 3.8633 0.29687 1.4141 1.3047 2.5703 2.6602 3.0586 0.86328 5.0117 5.2031 8.6758 10.289 8.6836h0.125c5.1367 0.046875 9.5703-3.5898 10.527-8.6367zm-20.066-20.316c1.9922 0.85938 4.1406 1.293 6.3125 1.2812 1.1211-0.035156 2.2383-0.16797 3.3359-0.39844 2.0977-0.375 3.9102-0.69922 5.3203 0.29297 1.2695 0.89063 2.2578 2.8828 2.9492 5.9258h-16.984c-0.61328-0.4375-2.2617-2.1367-0.93359-7.1016zm9.5391 25.828h-0.10156v0.003906c-3.8984 0.011719-7.1172-3.0391-7.3125-6.9297-0.039063-0.84375-0.73438-1.5078-1.582-1.5078-0.57031 0-1.0352-0.46094-1.0391-1.0352 0-0.36719 0.19531-0.70703 0.51562-0.88672 0.48828-0.27734 0.78906-0.79688 0.78906-1.3555l-0.003907-0.68359c-0.039062-1.0703 0.019531-2.1445 0.16406-3.207h17.555c0.066407 0.79297 0.074219 1.5859 0.027344 2.3789-0.019531 0.49219-0.039063 0.99609-0.039063 1.5117 0 0.55859 0.30078 1.0781 0.78906 1.3555 0.32031 0.17969 0.51562 0.51953 0.51562 0.88672-0.003906 0.55859-0.44141 1.0117-0.99609 1.0352-0.058594-0.003906-0.125-0.007812-0.16797-0.007812h0.003906c-0.83203 0-1.5195 0.64844-1.5625 1.4805-0.26562 3.9609-3.5859 7.0234-7.5547 6.9648z"/>
 <path d="m37.129 40.387c0 2.6289-3.9453 2.6289-3.9453 0 0-2.6328 3.9453-2.6328 3.9453 0"/>
 <path d="m37.129 48.277c0 2.6328-3.9453 2.6328-3.9453 0 0-2.6289 3.9453-2.6289 3.9453 0"/>
 <path d="m80.098 40.02c0 2.6328-3.9453 2.6328-3.9453 0 0-2.6289 3.9453-2.6289 3.9453 0"/>
 <path d="m80.098 47.914c0 2.6289-3.9453 2.6289-3.9453 0 0-2.6328 3.9453-2.6328 3.9453 0"/>
<text x="0.0" y="117.5" font-size="5.0" font-weight="bold" font-family="Arbeit Regular, Helvetica, Arial-Unicode, Arial, Sans-serif" fill="#000000">Created by WEBTECHOPS LLP</text><text x="0.0" y="122.5" font-size="5.0" font-weight="bold" font-family="Arbeit Regular, Helvetica, Arial-Unicode, Arial, Sans-serif" fill="#000000">from Noun Project</text></svg>